<svg xmlns="http://www.w3.org/2000/svg" width="512" height="512" viewBox="0 0 436.256 436.257"><path d="M389.428 290.66l-165.88-165.88c-11.612-11.99-25.79-17.986-42.54-17.986-15.608 0-28.833 5.424-39.684 16.274-10.854 10.848-16.277 24.078-16.277 39.687 0 16.75 5.996 30.93 17.987 42.54l117.06 117.06c1.902 1.902 4 2.853 6.283 2.853 3.046 0 7.52-2.953 13.415-8.85 5.9-5.9 8.846-10.376 8.846-13.422 0-2.28-.947-4.374-2.85-6.28L168.73 179.6c-4.757-5.14-7.136-10.755-7.136-16.845 0-5.523 1.807-10.09 5.424-13.706 3.615-3.618 8.186-5.425 13.706-5.425 6.47 0 12.18 2.28 17.13 6.85l165.876 165.88c11.998 11.987 17.994 25.785 17.994 41.39 0 12.19-4 22.275-11.992 30.267-8 7.994-18.082 11.998-30.27 11.998-15.607 0-29.405-6.003-41.39-17.994L76.512 160.178C62.048 145.713 54.82 128.486 54.82 108.5c0-20.177 6.945-37.404 20.84-51.678 13.895-14.272 30.93-21.41 51.107-21.41 19.412 0 36.636 7.327 51.673 21.978l173.018 173.302c1.902 1.906 4.09 2.85 6.567 2.85 3.046 0 7.474-2.9 13.274-8.705 5.808-5.804 8.703-10.23 8.703-13.274 0-2.28-.948-4.377-2.848-6.28L204.42 32.263C182.53 10.757 156.55 0 126.477 0c-30.264 0-55.863 10.566-76.8 31.693C28.738 52.82 18.27 78.518 18.27 108.78c0 29.692 10.753 55.483 32.26 77.372L272.374 407.71c19.033 19.026 41.394 28.547 67.09 28.547 22.27 0 40.927-7.52 55.96-22.56 15.037-15.03 22.562-33.687 22.562-55.962-.006-26.073-9.527-48.433-28.557-67.074z" fill="#00a99d"/></svg>