<svg xmlns="http://www.w3.org/2000/svg" xmlns:xlink="http://www.w3.org/1999/xlink" width="160" height="40" viewBox="0 0 160 40"><defs><path id="7827a" d="M872.83 4559.61l15.55 15.56a4 4 0 0 1 0 5.66l-15.55 15.55a4 4 0 0 1-5.66 0l-15.55-15.55a4 4 0 0 1 0-5.66l15.55-15.56a4 4 0 0 1 5.66 0z"/><path id="7827b" d="M842.83 4559.61l15.55 15.56a4 4 0 0 1 0 5.66l-15.55 15.55a4 4 0 0 1-5.66 0l-15.55-15.55a4 4 0 0 1 0-5.66l15.55-15.56a4 4 0 0 1 5.66 0z"/><path id="7827c" d="M812.83 4559.61l15.55 15.56a4 4 0 0 1 0 5.66l-15.55 15.55a4 4 0 0 1-5.66 0l-15.55-15.55a4 4 0 0 1 0-5.66l15.55-15.56a4 4 0 0 1 5.66 0z"/><path id="7827d" d="M752.83 4559.61l15.55 15.56a4 4 0 0 1 0 5.66l-15.55 15.55a4 4 0 0 1-5.66 0l-15.55-15.55a4 4 0 0 1 0-5.66l15.55-15.56a4 4 0 0 1 5.66 0z"/><path id="7827e" d="M782.83 4559.61l15.55 15.56a4 4 0 0 1 0 5.66l-15.55 15.55a4 4 0 0 1-5.66 0l-15.55-15.55a4 4 0 0 1 0-5.66l15.55-15.56a4 4 0 0 1 5.66 0z"/></defs><g><g transform="translate(-730 -4558)"><use fill="#e4e4e4" xlink:href="#7827a"/></g><g transform="translate(-730 -4558)"><g fill="#00a99d" font-family="'ElegantIcons','ElegantIcons'" font-size="16" font-style="none" font-weight="400" style="text-transform:uppercase"><text dominant-baseline="text-before-edge" font-family="Helvetica, Arial, sans-serif" transform="translate(861 4569)"><tspan style="font-kerning:normal"></tspan></text></g></g><g transform="translate(-730 -4558)"><use fill="#e4e4e4" xlink:href="#7827b"/></g><g transform="translate(-730 -4558)"><g fill="#00a99d" font-family="'ElegantIcons','ElegantIcons'" font-size="16" font-style="none" font-weight="400" style="text-transform:uppercase"><text dominant-baseline="text-before-edge" font-family="Helvetica, Arial, sans-serif" transform="translate(831 4570)"><tspan style="font-kerning:normal"></tspan></text></g></g><g transform="translate(-730 -4558)"><use fill="#e4e4e4" xlink:href="#7827c"/></g><g transform="translate(-730 -4558)"><g fill="#00a99d" font-family="'ElegantIcons','ElegantIcons'" font-size="16" font-style="none" font-weight="400" style="text-transform:uppercase"><text dominant-baseline="text-before-edge" font-family="Helvetica, Arial, sans-serif" transform="translate(801 4570)"><tspan style="font-kerning:normal"></tspan></text></g></g><g transform="translate(-730 -4558)"><use fill="#e4e4e4" xlink:href="#7827d"/></g><g transform="translate(-730 -4558)"><g fill="#00a99d" font-family="'ElegantIcons','ElegantIcons'" font-size="16" font-style="none" font-weight="400" style="text-transform:uppercase"><text dominant-baseline="text-before-edge" font-family="Helvetica, Arial, sans-serif" transform="translate(745 4569)"><tspan style="font-kerning:normal"></tspan></text></g></g><g transform="translate(-730 -4558)"><use fill="#383838" xlink:href="#7827e"/></g><g transform="translate(-730 -4558)"><g fill="#e3e3e3" font-family="'ElegantIcons','ElegantIcons'" font-size="16" font-style="none" font-weight="400" style="text-transform:uppercase"><text dominant-baseline="text-before-edge" font-family="Helvetica, Arial, sans-serif" transform="translate(772 4571)"><tspan style="font-kerning:normal"></tspan></text></g></g></g></svg>