<svg xmlns="http://www.w3.org/2000/svg" xmlns:xlink="http://www.w3.org/1999/xlink" width="160" height="40"><defs><path id="a" d="M872.83 4559.61l15.55 15.56a4 4 0 0 1 0 5.66l-15.55 15.55a4 4 0 0 1-5.66 0l-15.55-15.55a4 4 0 0 1 0-5.66l15.55-15.56a4 4 0 0 1 5.66 0z"/><path id="b" d="M842.83 4559.61l15.55 15.56a4 4 0 0 1 0 5.66l-15.55 15.55a4 4 0 0 1-5.66 0l-15.55-15.55a4 4 0 0 1 0-5.66l15.55-15.56a4 4 0 0 1 5.66 0z"/><path id="c" d="M812.83 4559.61l15.55 15.56a4 4 0 0 1 0 5.66l-15.55 15.55a4 4 0 0 1-5.66 0l-15.55-15.55a4 4 0 0 1 0-5.66l15.55-15.56a4 4 0 0 1 5.66 0z"/><path id="d" d="M752.83 4559.61l15.55 15.56a4 4 0 0 1 0 5.66l-15.55 15.55a4 4 0 0 1-5.66 0l-15.55-15.55a4 4 0 0 1 0-5.66l15.55-15.56a4 4 0 0 1 5.66 0z"/><path id="e" d="M782.83 4559.61l15.55 15.56a4 4 0 0 1 0 5.66l-15.55 15.55a4 4 0 0 1-5.66 0l-15.55-15.55a4 4 0 0 1 0-5.66l15.55-15.56a4 4 0 0 1 5.66 0z"/></defs><use fill="#e4e4e4" xlink:href="#a" transform="translate(-730 -4558)"/><text dominant-baseline="text-before-edge" font-family="Helvetica, Arial, sans-serif" transform="translate(131 11)" fill="#00a99d" font-size="16" font-style="none" font-weight="400"><tspan style="font-kerning:normal"></tspan></text><use fill="#e4e4e4" xlink:href="#b" transform="translate(-730 -4558)"/><text dominant-baseline="text-before-edge" font-family="Helvetica, Arial, sans-serif" transform="translate(101 12)" fill="#00a99d" font-size="16" font-style="none" font-weight="400"><tspan style="font-kerning:normal"></tspan></text><use fill="#e4e4e4" xlink:href="#c" transform="translate(-730 -4558)"/><text dominant-baseline="text-before-edge" font-family="Helvetica, Arial, sans-serif" transform="translate(71 12)" fill="#00a99d" font-size="16" font-style="none" font-weight="400"><tspan style="font-kerning:normal"></tspan></text><use fill="#e4e4e4" xlink:href="#d" transform="translate(-730 -4558)"/><text dominant-baseline="text-before-edge" font-family="Helvetica, Arial, sans-serif" transform="translate(15 11)" fill="#00a99d" font-size="16" font-style="none" font-weight="400"><tspan style="font-kerning:normal"></tspan></text><use fill="#383838" xlink:href="#e" transform="translate(-730 -4558)"/><text dominant-baseline="text-before-edge" font-family="Helvetica, Arial, sans-serif" transform="translate(42 13)" fill="#e3e3e3" font-size="16" font-style="none" font-weight="400"><tspan style="font-kerning:normal"></tspan></text></svg>