<svg xmlns="http://www.w3.org/2000/svg" viewBox="0 0 310 310"><path d="M165.9 125.903a5 5 0 0 0 5 5h51.15a5 5 0 0 0 5-5v-19.404c0-39.761-32.321-72.107-72.049-72.107-39.732 0-72.055 32.347-72.055 72.107v95.274c0 6.009-4.887 10.898-10.893 10.898-6.01 0-10.898-4.89-10.898-10.898v-42.338a5 5 0 0 0-5-5H5a5 5 0 0 0-5 5v44.066c0 39.761 32.323 72.107 72.055 72.107 39.728 0 72.049-32.347 72.049-72.107v-97.002c0-6.005 4.889-10.891 10.898-10.891 6.01 0 10.898 4.886 10.898 10.891v19.404z" fill="#e4e4e4"/><path d="M305 155.3h-51.152a5 5 0 0 0-5 5v43.201c0 6.009-4.889 10.898-10.898 10.898-6.01 0-10.898-4.89-10.898-10.898V160.3a5 5 0 0 0-5-5H170.9a5 5 0 0 0-5 5v43.201c0 39.761 32.321 72.107 72.049 72.107 39.729 0 72.051-32.347 72.051-72.107V160.3a5 5 0 0 0-5-5z" fill="#e4e4e4"/></svg>